<svg xmlns="http://www.w3.org/2000/svg" viewBox="179.29 501.75 169.56 30.22"><g fill="#111111"><path d="M 190.960938 511.445312 C 192.449219 511.445312 193.703125 511.792969 194.730469 512.488281 C 195.757812 513.183594 196.523438 514.117188 197.035156 515.285156 C 198.121094 513.953125 199.207031 512.976562 200.285156 512.363281 C 201.367188 511.753906 202.554688 511.445312 203.847656 511.445312 C 205.886719 511.445312 207.53125 512.109375 208.785156 513.4375 C 210.039062 514.769531 210.664062 516.539062 210.664062 518.757812 L 210.664062 531.105469 L 205.585938 531.105469 L 205.585938 519.605469 C 205.585938 518.269531 205.296875 517.214844 204.726562 516.445312 C 204.15625 515.671875 203.324219 515.285156 202.238281 515.285156 C 200.683594 515.285156 199.1875 516.285156 197.757812 518.28125 L 197.757812 531.105469 L 192.695312 531.105469 L 192.695312 519.519531 C 192.695312 518.199219 192.394531 517.164062 191.789062 516.414062 C 191.183594 515.664062 190.371094 515.285156 189.351562 515.285156 C 188.523438 515.285156 187.769531 515.523438 187.078125 516 C 186.390625 516.476562 185.65625 517.234375 184.871094 518.28125 L 184.871094 531.105469 L 179.789062 531.105469 L 179.789062 511.816406 L 184.871094 511.816406 L 184.871094 514.523438 C 185.792969 513.476562 186.726562 512.703125 187.679688 512.199219 C 188.628906 511.699219 189.722656 511.445312 190.960938 511.445312 "/><path d="M 228.652344 519.398438 C 228.515625 517.992188 228.089844 516.894531 227.371094 516.101562 C 226.65625 515.3125 225.671875 514.914062 224.417969 514.914062 C 223.136719 514.914062 222.109375 515.292969 221.332031 516.050781 C 220.554688 516.808594 220.0625 517.921875 219.855469 519.398438 Z M 224.210938 511.445312 C 227.046875 511.445312 229.292969 512.355469 230.945312 514.171875 C 232.597656 515.988281 233.421875 518.503906 233.421875 521.710938 L 233.421875 522.472656 L 219.773438 522.472656 C 219.976562 524.195312 220.621094 525.519531 221.703125 526.449219 C 222.785156 527.378906 224.265625 527.84375 226.152344 527.84375 C 227.367188 527.84375 228.53125 527.632812 229.65625 527.214844 C 230.777344 526.792969 231.9375 526.15625 233.132812 525.304688 L 233.132812 529.082031 C 230.875 530.679688 228.136719 531.476562 224.914062 531.476562 C 221.871094 531.476562 219.386719 530.5625 217.460938 528.730469 C 215.53125 526.902344 214.566406 524.464844 214.566406 521.421875 C 214.566406 518.488281 215.457031 516.09375 217.242188 514.234375 C 219.027344 512.375 221.347656 511.445312 224.210938 511.445312 "/><path d="M 248.199219 527.222656 L 250.863281 527.222656 L 250.863281 516.050781 C 249.816406 515.515625 248.730469 515.246094 247.601562 515.246094 C 245.90625 515.246094 244.554688 515.777344 243.542969 516.835938 C 242.53125 517.898438 242.023438 519.285156 242.023438 521.007812 C 242.023438 525.152344 244.082031 527.222656 248.199219 527.222656 M 250.863281 512.25 L 250.863281 502.253906 L 255.921875 502.253906 L 255.921875 531.105469 L 247.003906 531.105469 C 243.917969 531.105469 241.449219 530.21875 239.597656 528.441406 C 237.746094 526.667969 236.820312 524.242188 236.820312 521.171875 C 236.820312 519.355469 237.25 517.703125 238.109375 516.214844 C 238.972656 514.730469 240.15625 513.5625 241.664062 512.714844 C 243.171875 511.867188 244.800781 511.445312 246.546875 511.445312 C 247.898438 511.445312 249.335938 511.714844 250.863281 512.25 "/><path d="M 266.671875 531.105469 L 261.59375 531.105469 L 261.59375 511.816406 L 266.671875 511.816406 Z M 264.132812 502.894531 C 264.917969 502.894531 265.59375 503.179688 266.15625 503.742188 C 266.722656 504.308594 267.003906 504.980469 267.003906 505.765625 C 267.003906 506.523438 266.726562 507.195312 266.167969 507.78125 C 265.609375 508.363281 264.929688 508.65625 264.132812 508.65625 C 263.363281 508.65625 262.691406 508.363281 262.121094 507.78125 C 261.546875 507.195312 261.261719 506.523438 261.261719 505.765625 C 261.261719 504.96875 261.550781 504.289062 262.128906 503.730469 C 262.707031 503.175781 263.375 502.894531 264.132812 502.894531 "/><path d="M 276.605469 525.945312 C 276.605469 526.644531 276.828125 527.210938 277.277344 527.636719 C 277.726562 528.0625 278.277344 528.277344 278.941406 528.277344 C 280.054688 528.277344 281.171875 527.769531 282.285156 526.75 L 282.285156 521.667969 C 280.867188 522.152344 279.757812 522.605469 278.949219 523.03125 C 278.144531 523.457031 277.554688 523.890625 277.175781 524.332031 C 276.792969 524.773438 276.605469 525.3125 276.605469 525.945312 M 279.703125 511.445312 C 282.183594 511.445312 284.074219 511.972656 285.382812 513.027344 C 286.691406 514.078125 287.347656 515.546875 287.347656 517.433594 L 287.347656 526.871094 C 287.347656 527.601562 287.640625 527.96875 288.234375 527.96875 C 288.480469 527.96875 288.828125 527.859375 289.277344 527.648438 C 289.722656 527.433594 290.097656 527.191406 290.402344 526.914062 L 290.402344 529.847656 C 288.625 530.933594 287 531.476562 285.527344 531.476562 C 284.621094 531.476562 283.921875 531.328125 283.433594 531.023438 C 282.941406 530.722656 282.601562 530.183594 282.410156 529.414062 C 280.46875 530.789062 278.519531 531.476562 276.566406 531.476562 C 275.171875 531.476562 273.980469 531.011719 272.980469 530.074219 C 271.984375 529.136719 271.484375 528.015625 271.484375 526.707031 C 271.484375 525.042969 271.980469 523.726562 272.972656 522.765625 C 273.960938 521.800781 275.695312 520.960938 278.175781 520.242188 L 282.285156 519.046875 L 282.285156 518.15625 C 282.285156 516.273438 281.140625 515.328125 278.855469 515.328125 C 277.6875 515.328125 276.523438 515.597656 275.367188 516.132812 C 274.210938 516.671875 273.15625 517.460938 272.207031 518.507812 L 272.207031 513.945312 C 274.3125 512.28125 276.8125 511.445312 279.703125 511.445312 "/><path d="M 298.898438 506.695312 L 299.3125 506.695312 L 299.3125 511.816406 L 305.921875 511.816406 L 305.921875 515.660156 L 299.3125 515.660156 L 299.3125 524.558594 C 299.3125 525.425781 299.574219 526.128906 300.097656 526.667969 C 300.621094 527.203125 301.335938 527.472656 302.246094 527.472656 C 303.429688 527.472656 304.792969 527.046875 306.335938 526.191406 L 306.335938 530.261719 C 304.503906 531.074219 302.78125 531.476562 301.171875 531.476562 C 298.996094 531.476562 297.300781 530.886719 296.082031 529.703125 C 294.863281 528.519531 294.253906 526.914062 294.253906 524.890625 L 294.253906 515.660156 L 291.238281 515.660156 L 291.238281 514.832031 Z M 298.898438 506.695312 "/><path d="M 313.542969 521.378906 C 313.542969 523.308594 314.015625 524.847656 314.957031 525.996094 C 315.898438 527.144531 317.164062 527.71875 318.746094 527.71875 C 320.398438 527.71875 321.699219 527.167969 322.652344 526.066406 C 323.601562 524.964844 324.074219 523.390625 324.074219 521.339844 C 324.074219 519.382812 323.597656 517.871094 322.640625 516.804688 C 321.683594 515.738281 320.386719 515.203125 318.746094 515.203125 C 317.207031 515.203125 315.953125 515.769531 314.988281 516.898438 C 314.023438 518.027344 313.542969 519.519531 313.542969 521.378906 M 318.789062 511.445312 C 320.796875 511.445312 322.621094 511.867188 324.261719 512.703125 C 325.898438 513.546875 327.164062 514.722656 328.0625 516.238281 C 328.957031 517.75 329.402344 519.464844 329.402344 521.378906 C 329.402344 523.375 328.972656 525.125 328.113281 526.625 C 327.253906 528.125 325.984375 529.308594 324.3125 530.179688 C 322.640625 531.042969 320.796875 531.476562 318.789062 531.476562 C 316.765625 531.476562 314.925781 531.042969 313.273438 530.179688 C 311.621094 529.308594 310.367188 528.125 309.503906 526.625 C 308.644531 525.125 308.214844 523.375 308.214844 521.378906 C 308.214844 519.4375 308.667969 517.714844 309.578125 516.207031 C 310.484375 514.699219 311.753906 513.527344 313.375 512.695312 C 315 511.863281 316.804688 511.445312 318.789062 511.445312 "/><path d="M 344.078125 511.445312 C 344.753906 511.445312 345.417969 511.597656 346.070312 511.898438 C 346.726562 512.203125 347.484375 512.714844 348.351562 513.429688 L 346.535156 517.867188 C 345.0625 516.765625 343.878906 516.214844 342.984375 516.214844 C 342.199219 516.214844 341.425781 516.507812 340.660156 517.09375 C 339.894531 517.679688 339.28125 518.453125 338.824219 519.417969 C 338.359375 520.382812 338.128906 521.34375 338.128906 522.308594 L 338.128906 531.105469 L 333.050781 531.105469 L 333.050781 511.816406 L 338.128906 511.816406 L 338.128906 516.730469 L 338.214844 516.730469 C 339.136719 514.875 340.0625 513.527344 341 512.695312 C 341.9375 511.863281 342.960938 511.445312 344.078125 511.445312 "/></g></svg>